<?xml version="1.0" standalone="no"?><!DOCTYPE svg PUBLIC "-//W3C//DTD SVG 1.1//EN" "http://www.w3.org/Graphics/SVG/1.1/DTD/svg11.dtd"><svg t="1666354706023" class="icon" viewBox="0 0 1024 1024" version="1.1" xmlns="http://www.w3.org/2000/svg" p-id="9860" xmlns:xlink="http://www.w3.org/1999/xlink" width="200" height="200"><path d="M740.20444 162.3c-4.6-13.9-19.7-21.5-33.6-16.9L186.10444 317h153.1l290.9-95.9c18.7 34.1 56.5 53.3 95 48.4l15.7 47.6h50.5l-51.1-154.8zM1.30444 406l116.8 354.1v-153L77.20444 483c19.2-11 33.3-28.3 40.9-48.2v-61c0-15.5 6.3-29.5 16.4-39.8L18.30444 372.3c-14 4.6-21.5 19.8-17 33.7z" fill="#54A8B9" p-id="9861"></path><path d="M775.30444 550.3c-24.5 0-44.4 19.9-44.4 44.4s19.9 44.4 44.4 44.4 44.4-19.9 44.4-44.4c0-24.6-19.8-44.4-44.4-44.4z m-476 0c-24.5 0-44.4 19.9-44.4 44.4s19.9 44.4 44.4 44.4 44.4-19.9 44.4-44.4c0-24.6-19.9-44.4-44.4-44.4z m238.1-120.4c-80.7 0-146.1 73.7-146.1 164.7 0 91 65.4 164.7 146.1 164.7 80.6 0 146.1-73.7 146.1-164.7-0.2-90.9-65.5-164.7-146.1-164.7z m13.3 238.8v24.7H520.00444v-22.5c-18.9-1-37.5-5.6-47.7-10.4l8.6-33.4c12.1 5.3 28.9 10.6 47.4 10.6 13.8 0 23.5-3.4 23.5-11.1 0-7.5-8.1-12.1-28.1-17.7-29.4-8.5-50.1-20.8-50.1-45.2 0-22 17-39.4 47.7-45v-22.5h30.5v20.6c18.6 0.5 31.2 3.9 41 7.7l-8.6 32.2c-7.3-2.7-20.5-8.2-40.7-8.2-15.9 0-20.8 5.1-20.8 10.4 0 6.1 9.2 10.6 31.8 17.7 34 10.2 46.4 23.9 46.4 46 0 22.4-17.8 40.8-50.2 46.1z" fill="#626262" p-id="9862"></path><path d="M712.10444 827.7c0-10.4 3.2-20.1 8.4-28.3H270.10444c-7.5-37.2-36.7-66.5-73.8-74V470.7c37.6-7.7 67-37.7 74-75.6h533.1c7 38.2 36.9 68.4 75.1 75.7v170.4h47.9V373.8c0-14.7-12-26.6-26.6-26.6H175.00444c-14.7 0-26.6 12-26.6 26.6v446.9c0 14.7 12 26.6 26.6 26.6h541c-2.5-6-3.9-12.6-3.9-19.6z" fill="#626262" p-id="9863"></path><path d="M768.50444 717.2c-12.9 0-23.4-10.5-23.4-23.4 0-12.9 10.4-23.3 23.4-23.3h232.2c12.9 0 23.3 10.4 23.3 23.3s-10.4 23.4-23.3 23.4H768.50444zM758.40444 784c-12.9 0-23.4-10.5-23.4-23.4 0-12.9 10.4-23.4 23.4-23.4h232.2c12.9 0 23.4 10.5 23.4 23.4 0 12.9-10.5 23.4-23.4 23.4H758.40444zM764.60444 851c-12.9 0-23.4-10.4-23.4-23.3s10.4-23.4 23.4-23.4h232.2c12.9 0 23.4 10.4 23.4 23.4 0 12.9-10.5 23.3-23.4 23.3H764.60444z" fill="#F79633" p-id="9864"></path></svg>