<?xml version="1.0" standalone="no"?><!DOCTYPE svg PUBLIC "-//W3C//DTD SVG 1.1//EN" "http://www.w3.org/Graphics/SVG/1.1/DTD/svg11.dtd"><svg t="1666352256095" class="icon" viewBox="0 0 1191 1024" version="1.1" xmlns="http://www.w3.org/2000/svg" p-id="7624" xmlns:xlink="http://www.w3.org/1999/xlink" width="232.6171875" height="200"><path d="M1109.643636 61.44c-55.854545-55.854545-146.152727-55.854545-202.007272 0L856.436364 111.709091l-50.269091-51.2c-55.854545-55.854545-146.152727-55.854545-202.007273 0s-55.854545 147.083636 0 202.938182L856.436364 518.516364l253.207272-254.138182c55.854545-55.854545 55.854545-147.083636 0-202.938182z" fill="#FA004B" p-id="7625"></path><path d="M1131.985455 643.258182H763.345455c20.48 0 37.236364-16.756364 37.236363-38.167273 0-20.48-16.756364-38.167273-37.236363-38.167273H314.647273v175.010909l280.203636 112.64 545.512727-123.810909c18.618182-4.654545 32.581818-24.203636 32.581819-43.752727 0-22.341818-18.618182-43.752727-40.96-43.752727z" fill="#FAEDD6" p-id="7626"></path><path d="M744.727273 649.774545h-37.236364v-37.236363h74.472727c0 19.549091-16.756364 37.236364-37.236363 37.236363zM1135.709091 724.247273h-37.236364v-37.236364h74.472728c0 20.48-16.756364 37.236364-37.236364 37.236364z" fill="#FFFFFF" p-id="7627"></path><path d="M18.618182 574.370909h242.036363v430.08H18.618182z" fill="#36C9A3" p-id="7628"></path><path d="M278.341818 1023.069091H0V555.752727h278.341818v467.316364z m-242.036363-36.305455H242.036364V592.989091H36.305455V986.763636z" fill="#232323" p-id="7629"></path><path d="M74.472727 868.538182h36.305455v72.610909H74.472727z" fill="#FFFFFF" p-id="7630"></path><path d="M593.92 874.123636L297.890909 754.967273V555.752727h465.454546c30.72 0 55.854545 25.134545 55.854545 55.854546s-25.134545 55.854545-55.854545 55.854545H577.163636c-10.24 0-18.618182 8.378182-18.618181 19.549091h-37.236364c0-30.72 25.134545-55.854545 55.854545-55.854545h186.181819c10.24 0 18.618182-8.378182 18.618181-19.549091s-8.378182-19.549091-18.618181-19.549091H334.196364v137.774545l262.516363 105.192728 539.927273-122.88c10.24-2.792727 17.687273-12.101818 17.687273-22.341819 0-13.032727-10.24-23.272727-23.272728-23.272727H837.818182v-36.305454h294.167273c32.581818 0 59.578182 26.996364 59.578181 59.578181 0 27.927273-19.549091 52.130909-46.545454 58.647273L593.92 874.123636zM856.436364 544.581818L591.127273 277.410909c-63.301818-63.301818-63.301818-165.701818 0-229.003636 63.301818-63.301818 164.770909-63.301818 228.072727 0l37.236364 38.167272 37.236363-38.167272c63.301818-63.301818 164.770909-63.301818 228.072728 0 63.301818 63.301818 63.301818 165.701818 0 229.003636L856.436364 544.581818zM704.698182 37.236364c-33.512727 0-64.232727 13.032727-88.436364 36.305454-48.407273 49.338182-48.407273 128.465455 0 176.872727l240.174546 242.036364L1096.610909 251.345455c23.272727-23.272727 36.305455-54.923636 36.305455-88.436364s-13.032727-65.163636-36.305455-88.436364-54.923636-36.305455-88.436364-36.305454c-33.512727 0-64.232727 13.032727-88.436363 36.305454L856.436364 137.774545 793.134545 74.472727c-23.272727-24.203636-54.923636-37.236364-88.436363-37.236363z" fill="#232323" p-id="7631"></path><path d="M1098.472727 161.978182h-36.305454c0-19.549091-17.687273-37.236364-37.236364-37.236364V88.436364c40.96 0 73.541818 32.581818 73.541818 73.541818z" fill="#FFFFFF" p-id="7632"></path></svg>